<?xml version="1.0" standalone="no"?>
<!DOCTYPE svg PUBLIC "-//W3C//DTD SVG 20010904//EN"
 "http://www.w3.org/TR/2001/REC-SVG-20010904/DTD/svg10.dtd">
<svg version="1.0" xmlns="http://www.w3.org/2000/svg"
 width="576.000000pt" height="576.000000pt" viewBox="0 0 576.000000 576.000000"
 preserveAspectRatio="xMidYMid meet">
<metadata>
Created by potrace 1.14, written by Peter Selinger 2001-2017
</metadata>
<g transform="translate(0.000000,576.000000) scale(0.100000,-0.100000)"
fill="#000000" stroke="none">
<path d="M1770 2890 l0 -380 60 0 60 0 0 40 c0 22 2 40 4 40 2 0 20 -16 40
-35 84 -79 232 -71 319 18 81 82 104 228 55 337 -47 103 -116 153 -212 151
-67 0 -111 -18 -154 -60 l-32 -33 0 151 0 151 -70 0 -70 0 0 -380z m336 39
c104 -50 113 -220 15 -286 -60 -41 -144 -26 -190 33 -28 35 -30 156 -4 194 25
36 54 58 88 69 43 13 44 13 91 -10z"/>
<path d="M4617 3263 c-2 -5 -3 -72 -2 -150 l1 -141 -33 29 c-52 45 -92 62
-152 62 -92 1 -165 -49 -214 -145 -30 -59 -36 -167 -12 -237 58 -177 270 -238
399 -116 35 32 36 33 36 10 0 -38 30 -65 78 -70 64 -6 69 -1 71 60 1 42 -3 56
-17 64 -15 9 -17 36 -18 318 -1 169 -2 311 -3 316 0 4 -30 7 -65 7 -36 0 -67
-3 -69 -7z m-78 -337 c16 -9 41 -31 54 -48 22 -29 24 -42 22 -103 -3 -84 -7
-95 -47 -125 -47 -34 -114 -38 -157 -8 -58 39 -76 72 -75 136 1 65 21 112 61
140 46 33 89 35 142 8z"/>
<path d="M4923 3200 l0 -71 70 3 71 3 -1 35 c0 19 -1 50 -2 68 l-1 32 -68 0
-68 0 -1 -70z"/>
<path d="M2662 3248 c-131 -20 -212 -107 -212 -227 0 -109 52 -152 265 -217
97 -30 135 -58 135 -99 0 -90 -163 -99 -315 -17 l-54 29 -30 -57 c-17 -32 -31
-60 -31 -64 0 -11 127 -66 187 -80 129 -29 284 -3 342 57 50 54 70 172 38 233
-33 63 -95 100 -241 140 -117 32 -146 52 -146 99 0 36 30 74 59 76 89 8 170
-8 228 -46 12 -8 25 -15 27 -15 7 0 56 96 56 109 0 14 -84 55 -140 69 -66 17
-109 19 -168 10z"/>
<path d="M19 3199 c11 -27 77 -194 147 -370 l128 -319 62 0 62 0 45 108 c25
59 53 126 62 149 9 24 20 41 24 39 3 -2 33 -70 66 -150 l60 -146 64 2 63 3
144 359 c79 198 144 363 144 368 0 4 -33 8 -74 8 -71 0 -74 -1 -84 -27 -39
-100 -68 -180 -128 -345 -37 -104 -70 -188 -73 -188 -6 0 -72 161 -85 205 -4
13 17 82 54 180 33 87 60 162 60 165 0 11 -120 7 -129 -4 -5 -6 -23 -56 -41
-111 -18 -55 -36 -103 -39 -107 -4 -4 -25 45 -47 110 l-41 117 -67 1 c-57 0
-66 -2 -61 -15 51 -131 115 -312 115 -325 0 -9 -4 -24 -9 -34 -6 -9 -19 -42
-30 -72 -10 -30 -26 -70 -34 -89 l-14 -33 -29 78 c-16 44 -29 81 -30 84 0 3
-4 12 -7 20 -3 8 -13 33 -20 55 -32 91 -96 262 -110 298 l-16 37 -75 0 -76 0
19 -51z"/>
<path d="M3148 3143 l-3 -88 -32 0 c-18 1 -34 -2 -34 -5 -1 -3 -2 -26 -3 -52
l-2 -48 38 0 38 0 0 -180 c0 -208 5 -228 70 -254 51 -20 89 -20 162 0 l59 17
-7 41 c-10 62 -21 78 -44 66 -27 -14 -76 -12 -89 4 -10 12 -16 156 -12 284 1
22 4 24 56 20 49 -3 55 -1 56 17 1 11 2 27 3 35 4 38 -11 55 -50 56 -22 1 -46
2 -54 3 -12 1 -14 16 -12 86 l3 85 -70 0 -70 0 -3 -87z"/>
<path d="M1311 3059 c-132 -25 -220 -127 -226 -263 -4 -89 19 -151 81 -213 74
-75 180 -101 289 -72 52 14 128 65 149 101 17 27 17 28 -7 37 -63 24 -91 23
-116 -3 -67 -72 -200 -49 -237 40 -8 18 -14 37 -14 42 0 5 92 9 205 9 113 0
209 3 213 7 15 15 3 107 -21 159 -54 119 -180 181 -316 156z m127 -115 c35
-20 61 -56 68 -91 l6 -28 -134 2 c-73 1 -136 2 -140 2 -15 2 -8 34 14 68 35
59 128 82 186 47z"/>
<path d="M5407 3058 c-133 -28 -217 -135 -220 -276 -1 -85 33 -164 95 -216
102 -88 274 -88 377 0 65 56 94 123 94 214 -1 84 -21 142 -70 197 -57 64 -184
101 -276 81z m123 -128 c45 -19 82 -87 82 -151 -1 -123 -120 -199 -213 -136
-97 64 -90 235 12 285 43 22 71 22 119 2z"/>
<path d="M3545 3051 c-2 -4 -3 -101 -2 -216 2 -208 2 -211 29 -256 36 -61 86
-84 167 -76 69 6 118 27 157 67 36 36 39 36 41 4 2 -37 33 -65 74 -66 76 -2
75 -3 74 55 0 36 -6 59 -17 70 -14 14 -16 43 -17 194 0 98 0 189 0 204 -1 24
-3 25 -68 24 l-68 -1 -2 -129 c-1 -72 -2 -151 -2 -177 -1 -39 -6 -51 -37 -82
-57 -57 -137 -61 -171 -9 -15 23 -18 55 -20 207 -2 98 -5 182 -9 185 -7 8
-124 9 -129 2z"/>
<path d="M4929 3055 c-1 0 -3 -123 -4 -272 l-2 -273 69 0 c47 0 68 4 69 13 5
76 2 512 -3 520 -5 9 -111 19 -129 12z"/>
</g>
</svg>
